<svg xmlns="http://www.w3.org/2000/svg" width="18" height="18" fill="none" viewBox="0 0 16 16"><path fill="#0080FF" d="M6.724.821a1.63 1.63 0 0 1 2.858.051l.556 1.042a1.634 1.634 0 0 0 1.672.856l1.155-.166c1.263-.181 2.238 1.108 1.742 2.303L14.253 6a1.69 1.69 0 0 0 .385 1.863l.847.815c.927.891.544 2.47-.685 2.821l-1.122.32a1.663 1.663 0 0 0-1.192 1.468l-.098 1.181c-.108 1.294-1.56 1.974-2.596 1.216l-.946-.693a1.62 1.62 0 0 0-1.872-.033l-.969.658c-1.06.721-2.49-.01-2.552-1.306l-.058-1.184a1.666 1.666 0 0 0-1.141-1.51l-1.11-.36C-.073 10.864-.402 9.272.556 8.413l.874-.783a1.69 1.69 0 0 0 .448-1.849l-.416-1.108c-.454-1.212.565-2.466 1.821-2.24l1.148.207a1.632 1.632 0 0 0 1.7-.796L6.724.82Z"></path><path stroke="#fff" stroke-linecap="round" stroke-linejoin="round" stroke-width="1.333" d="M10.667 6.667 7.11 10.222 5.334 8.444"></path></svg>